<svg width="1024" height="1024" viewBox="0 0 1024 1024" fill="none" xmlns="http://www.w3.org/2000/svg">
<path d="M284.276 481.881C273.042 481.359 261.22 480.375 253.036 471.654C247.405 465.654 243.794 455.117 244.561 446.987C248.632 403.806 278.874 361.535 310.059 334.002C370.839 280.34 454.424 255.944 534.525 261.257C610.211 266.365 686.331 297.646 737.538 354.922C756.914 376.595 773.577 404.256 779.512 433.012C782.493 447.422 783.768 461.744 771.689 472.518C763.015 480.256 752.259 481.762 741.014 481.844L741.358 482.071C745.098 484.493 748.24 485.937 752.05 488.708C762.935 496.63 770.322 509.168 772.894 522.375C781.121 520.951 789.509 521.35 796.51 526.444C801.54 530.14 804.844 535.739 805.651 541.938C807.766 558.193 794.228 568.422 779.862 571.323C781.659 587.597 782.073 606.34 774.481 621.104C773.384 623.239 768.466 631.732 768.525 632.815C770.693 634.703 772.722 636.741 774.611 638.914C797.177 665.12 786.319 711.341 760.282 731.373C723.855 759.401 672.513 761.003 628.467 763.715C593.682 765.856 558.884 765.333 524.082 765.457C468.032 765.338 412.348 766.454 356.553 760.841C321.021 757.18 278.765 749.496 255.171 720.001C243.588 705.89 238.214 685.545 239.765 667.444C241.014 652.88 247.902 641.443 259.045 632.465C258.169 631.241 257.331 629.985 256.533 628.707C247.949 614.763 245.334 600.667 246.084 584.486C246.279 580.291 246.337 576.122 247.292 572.019C231.409 569.517 217.578 558.243 220.557 540.779C221.556 534.959 224.833 529.78 229.66 526.393C236.732 521.408 244.98 521.277 253.192 522.537C254.138 521.737 258.305 510.391 259.266 508.138C265.723 493.005 270.985 490.425 283.946 482.096L284.276 481.881Z" fill="#359EFA"/>
<path d="M284.217 482.714C272.979 482.189 261.153 481.201 252.967 472.448C247.334 466.425 243.722 455.848 244.489 447.688C248.561 404.345 278.813 361.915 310.008 334.278C370.808 280.415 454.419 255.927 534.546 261.26C610.257 266.387 686.401 297.785 737.625 355.277C757.007 377.031 773.676 404.796 779.613 433.66C782.594 448.124 783.87 462.5 771.787 473.315C763.11 481.082 752.351 482.594 741.102 482.676L284.217 482.714Z" fill="#FEFEFE"/>
<path d="M257.94 632.174C275.905 644.5 291.455 644.906 312.479 646.748C357.618 650.704 402.88 648.715 448.116 649.153C470.005 649.456 493.025 648.429 514.779 649.439C539.686 670.158 563.491 680.475 596.56 677.562C619.603 675.535 634.951 664.862 651.93 650.439C674.579 649.764 697.244 649.202 719.818 647.116C737.704 645.462 754.494 643.733 769.291 632.525C771.467 634.416 773.503 636.459 775.399 638.637C798.048 664.9 787.15 711.223 761.017 731.299C724.457 759.389 672.926 760.994 628.719 763.712C593.806 765.857 558.88 765.333 523.951 765.457C467.694 765.339 411.806 766.457 355.806 760.832C320.144 757.162 277.733 749.462 254.052 719.902C242.426 705.76 237.032 685.371 238.59 667.229C239.843 652.633 246.756 641.171 257.94 632.174Z" fill="#FEFEFE"/>
<path d="M283.633 482.751L741.589 482.714L741.935 482.937C745.684 485.315 748.835 486.734 752.654 489.454C763.568 497.233 770.976 509.544 773.555 522.513C756.674 526.752 745.285 533.655 732.456 544.932C720.894 555.097 710.714 560.824 694.993 561.359C674.859 562.042 664.242 551.562 649.912 539.89C643.66 534.798 633.749 529.973 625.996 527.389C601.018 519.829 575.893 524.415 554.828 539.516C547.234 544.96 538.749 552.474 530.693 556.42C523.715 559.844 515.996 561.554 508.197 561.406C486.635 561.157 479.925 551.05 464.719 539.707C457.892 534.626 450.278 530.654 442.168 527.942C418.044 520.101 391.708 524.519 371.316 539.126C363.219 544.925 355.657 552.082 346.679 556.375C337.391 560.813 329.971 562.084 320 561.237C294.816 559.105 286.982 540.912 267.557 528.848C263.708 526.458 256.889 524.114 252.466 522.672C253.414 521.886 257.593 510.745 258.556 508.533C265.03 493.674 270.306 491.14 283.301 482.962L283.633 482.751Z" fill="#359EFA"/>
<path d="M772.894 521.809C781.121 520.371 789.509 520.774 796.51 525.915C801.54 529.645 804.844 535.295 805.651 541.551C807.766 557.955 794.228 568.278 779.862 571.205L778.996 571.38C764.71 574.345 755.229 584.363 742.806 592.678C714.143 611.848 676.064 613.633 647.09 594.168C629.264 582.192 616.872 566.292 592.654 571.505C575.345 575.232 568.323 585.353 555.05 594.098C527.363 612.446 491.563 612.506 463.82 594.239C445.558 582.344 433.772 566.118 408.893 571.396C392.452 574.878 384.269 585.283 371.285 593.826C343.797 611.913 307.575 612.719 280.122 594.011C270.979 587.78 256.233 573.083 247.292 571.907C231.409 569.382 217.578 558.005 220.557 540.381C221.556 534.508 224.833 529.281 229.66 525.864C236.732 520.833 244.98 520.701 253.192 521.972C257.603 523.454 264.404 525.864 268.243 528.32C287.616 540.718 295.43 559.416 320.546 561.607C330.491 562.477 337.892 561.171 347.155 556.61C356.109 552.198 363.65 544.843 371.726 538.882C392.064 523.87 418.33 519.33 442.389 527.389C450.478 530.176 458.072 534.258 464.881 539.48C480.046 551.137 486.738 561.525 508.242 561.781C516.021 561.933 523.719 560.175 530.679 556.656C538.714 552.6 547.176 544.878 554.75 539.284C575.759 523.764 600.816 519.051 625.729 526.82C633.461 529.476 643.345 534.435 649.581 539.668C663.872 551.664 674.461 562.434 694.541 561.732C710.221 561.182 720.374 555.297 731.905 544.849C744.7 533.26 756.058 526.166 772.894 521.809Z" fill="#98CCFA"/>
<path d="M554.969 317.662C566.309 316.196 578.074 324.967 584.774 333.459C589.249 339.133 589.484 344.416 583.109 348.504C569.719 352.178 539.059 328.631 554.969 317.662Z" fill="#4A87EC"/>
<path d="M427.037 320.54C434.957 320.141 442.663 322.625 437.421 331.858C432.795 340.008 423.996 345.496 415.35 348.336C405.155 350.473 400.332 344.018 405.748 335.135C409.79 328.506 419.541 322.438 427.037 320.54Z" fill="#4A87EC"/>
<path d="M506.14 295.459C512.827 299.722 517.667 306.212 508.046 310.7C499.553 314.662 489.201 314.037 480.509 311.342C470.962 307.177 470.771 299.121 480.332 295.019C487.468 291.958 498.931 292.662 506.14 295.459Z" fill="#4A87EC"/>
</svg>
