<svg width="1024" height="1024" viewBox="0 0 1024 1024" fill="none" xmlns="http://www.w3.org/2000/svg">
<path d="M265.057 320.973C266.662 316.669 268.501 312.687 272.949 310.525C276.187 308.99 279.712 308.151 283.295 308.062C305.062 307.553 328.807 308.015 350.718 308.029L480.06 308.07L598.395 308.053L635.215 308.045C649.48 308.036 671.215 304.213 673.195 323.437C673.925 330.446 673.92 342.966 673.63 350.145C703.595 348.816 734.4 351.004 757.795 372.351C779.06 391.76 786.83 422.344 788.035 450.239C789.595 486.364 783.4 526.035 757.89 553.505C735.975 577.11 707.6 586.12 676 586.975C675.295 586.995 674.595 587 673.89 586.995C673.53 594.16 673.79 601.04 673.57 608.095L673.44 638.75C673.51 653.48 674.815 668.72 667.7 682.12C649.525 716.35 600.375 714.925 566.85 714.95L522.135 714.945L371.791 714.96C342.8 714.88 300.158 715.515 278.91 693.69C262.107 676.425 265.569 659.97 264.876 639.295C264.101 630.08 264.869 618.04 264.634 608.38C265.051 604.115 264.623 589.52 264.616 584.525L264.575 531.35L264.567 402.281C264.564 375.461 264.136 347.651 265.057 320.973ZM673.79 528.09C677.78 529.775 696.35 525.585 701.22 523.8C716.73 518.215 729.29 506.55 736.01 491.5C753.18 453.81 741.62 396.823 690.79 401.991C685.495 402.529 679.43 402.665 674.39 404.555C673.63 405.922 673.855 407.643 673.855 409.288C674.53 432.966 673.93 459.644 673.955 483.489L673.98 512.03C673.98 516.425 674.19 524.015 673.79 528.09Z" fill="#359EFA"/>
<path d="M673.195 323.438C673.925 330.446 673.92 342.966 673.63 350.145C703.595 348.816 734.4 351.005 757.795 372.352C779.06 391.76 786.83 422.344 788.035 450.239C789.595 486.364 783.4 526.035 757.89 553.505C735.975 577.11 707.6 586.12 676 586.975C675.295 586.995 674.595 587 673.89 586.995C673.53 594.16 673.79 601.04 673.57 608.095L673.44 638.75C673.51 653.48 674.815 668.72 667.7 682.12C649.525 716.35 600.375 714.925 566.85 714.95L522.135 714.945L371.791 714.96C342.8 714.88 300.158 715.515 278.91 693.69C262.107 676.425 265.569 659.97 264.876 639.295C281.839 646.965 303.681 651.49 322.224 653.395C332.039 654.98 354.364 657.38 364.327 657.48C363.548 650.825 364.028 631.18 363.908 623.385C395.142 626.265 430.365 626.19 461.728 626.485C515.095 626.99 565.99 625.145 619.075 619.28L619.18 328.48C632.56 328.053 651.125 329.059 663.51 328.073C663.885 328.072 664.255 328.067 664.63 328.056C669.18 327.911 670.235 326.575 673.195 323.438ZM673.79 528.09C677.78 529.775 696.35 525.585 701.22 523.8C716.73 518.215 729.29 506.55 736.01 491.5C753.18 453.81 741.62 396.823 690.79 401.991C685.495 402.529 679.43 402.665 674.39 404.556C673.63 405.923 673.855 407.644 673.855 409.289C674.53 432.966 673.93 459.645 673.955 483.49L673.98 512.03C673.98 516.425 674.19 524.015 673.79 528.09Z" fill="#359EFA"/>
<path d="M618.095 653.47C619.855 652.835 627.91 651.59 630.195 651.165C637.59 649.805 644.945 648.21 652.24 646.385C660.055 644.41 666.785 640.595 672.675 638.955L673.44 638.75C673.51 653.48 674.815 668.72 667.7 682.12C649.525 716.35 600.375 714.925 566.85 714.95L522.135 714.945L371.791 714.96C342.8 714.88 300.158 715.515 278.91 693.69C262.107 676.425 265.569 659.97 264.876 639.295C281.839 646.965 303.681 651.49 322.224 653.395C332.039 654.98 354.364 657.38 364.327 657.48C365.451 657.575 366.945 657.655 368.026 657.815C372.992 658.48 381.798 658.695 387.078 658.935C399.298 659.485 411.523 659.94 423.751 660.295C488.612 662.715 553.56 660.435 618.095 653.47Z" fill="#1A4E7C"/>
<path d="M322.224 653.395C332.039 654.98 354.364 657.379 364.327 657.479C365.451 657.574 366.945 657.655 368.026 657.815C367.018 657.905 366.01 657.999 365.002 658.099C364.785 658.324 364.568 658.55 364.351 658.775C363.931 669.56 364.379 688.075 363.988 698.125C359.241 697.99 354.706 697.045 350.1 696.275C318.22 690.95 321.72 680.26 322.224 653.395Z" fill="#1A4E7C"/>
<path d="M673.57 608.095L673.44 638.75L672.675 638.955C666.785 640.595 660.055 644.41 652.24 646.385C644.945 648.21 637.59 649.805 630.195 651.165C627.91 651.59 619.855 652.835 618.095 653.47C620.175 650.03 619.015 625.345 618.985 619.17C637.15 616.51 655.975 613.445 673.57 608.095Z" fill="#359EFA"/>
<path d="M673.465 376.432C696.63 375.158 720.925 376.003 739.27 392.204C756.09 407.063 761.405 430.186 762.82 451.306C765.98 498.434 741.67 542.4 692.725 551.02C686.925 552.04 679.09 552.625 673.46 554.025C673.445 550.96 673.045 529.96 673.79 528.09C677.78 529.775 696.35 525.585 701.22 523.8C716.73 518.215 729.29 506.55 736.01 491.501C753.18 453.811 741.62 396.823 690.79 401.991C685.495 402.529 679.43 402.665 674.39 404.556C673.63 405.923 673.855 407.644 673.855 409.289C673.075 405.826 673.535 381.426 673.465 376.432Z" fill="#1A4E7C"/>
<path d="M265.058 320.973C266.662 316.669 268.502 312.687 272.949 310.525C276.188 308.99 279.712 308.151 283.295 308.062C305.062 307.553 328.807 308.015 350.718 308.029L480.061 308.07L598.395 308.053L635.215 308.045C649.48 308.036 671.215 304.213 673.195 323.437C670.235 326.574 669.18 327.911 664.63 328.056C664.255 328.067 663.885 328.072 663.51 328.073C651.415 327.506 636.045 327.978 623.66 328.002L552.77 328.021L370.373 328.026C337.119 328.034 303.083 328.455 269.91 327.926C266.834 325.71 265.594 324.807 265.058 320.973Z" fill="#C9DFFE"/>
<path d="M264.634 608.38C283.447 613.83 302.731 617.495 322.232 619.325C321.998 629.395 321.751 643.39 322.225 653.395C303.682 651.49 281.839 646.965 264.877 639.295C264.101 630.08 264.87 618.04 264.634 608.38Z" fill="#359EFA"/>
<path d="M504.815 407.747C614.855 408.045 578.64 558.15 461.556 556.475C443.203 555.195 425.38 551.04 411.356 538.375C401.144 529.175 395.106 516.22 394.626 502.48C393.709 481.741 405.442 461.533 419.148 446.816C441.346 422.883 472.189 408.816 504.815 407.747Z" fill="#C9DFFE"/>
<path d="M524.11 423.103C528.255 423.655 531.35 427.843 528.975 430.414C525.535 434.14 517.17 438.93 512.965 442.154C509.445 444.885 506.045 447.77 502.775 450.801C473.597 477.884 464.918 505.475 423.059 520.265C418.968 519.76 415.39 516.46 418.035 512.13C419.656 509.74 422.135 507.585 424.348 505.735C442.652 490.423 455.123 469.852 472.421 453.468C486.951 439.705 504.375 427.755 524.11 423.103Z" fill="#359EFA"/>
<path d="M333.757 344.714C338.986 344.407 360.677 344.013 362.411 347.927C365.155 354.125 364.145 379.152 364.142 386.658L364.105 444.646L364.108 623.535C360.922 623.17 357.594 623 354.382 622.785C343.714 621.53 332.683 621.085 322.024 619.37L322.025 425.238L321.984 376.176C321.981 369.858 321.593 354.753 322.705 349.102C326.598 344.57 327.993 344.945 333.757 344.714Z" fill="#359EFA"/>
</svg>
