<svg width="1024" height="1024" viewBox="0 0 1024 1024" fill="none" xmlns="http://www.w3.org/2000/svg">
<path d="M612.112 276.956C613.4 270.798 616.02 265.752 621.393 262.118C626.147 258.965 631.964 257.824 637.562 258.945C643.508 260.165 648.694 264.116 651.8 269.266C655.484 275.376 655.164 280.075 655.019 286.779C657.751 286.86 660.473 286.968 663.2 286.942C688.169 286.913 713.021 283.273 731.82 302.333C748.053 318.79 747.363 334.05 747.128 355.289C747.005 366.605 746.94 379.49 747.095 390.782C747.122 394.655 747.261 399.148 747.133 402.97L747.218 578.595L747.154 634.613C747.218 651.603 747.545 669.959 746.93 686.847C747.01 688.784 747.053 690.727 747.053 692.67C747.25 715.237 749.181 732.531 731.884 749.948C713.208 768.757 691.361 765.224 667.317 765.192L598.066 765.149L352.293 765.283C328.298 765.352 308.438 768.138 289.925 749.713C271.527 731.4 274.889 710.007 275.003 686.121C274.353 655.296 274.894 622.956 274.885 591.971L274.951 403.023C274.896 390.283 274.905 377.543 274.978 364.804L274.867 344.251C274.902 327.092 278.216 314.681 290.758 301.98C308.687 283.825 332.606 286.779 356.415 287.084C359.829 286.778 364.342 286.744 367.849 286.619C367.748 279.161 367.812 273.178 372.649 266.853C376.054 262.331 381.162 259.392 386.789 258.717C392.781 257.949 398.822 259.728 403.438 263.619C408.291 267.777 410.33 272.802 410.76 279.031C410.883 281.359 410.64 285.465 411.818 286.967L412.09 287.042L419.843 286.989C458.811 287.013 499.392 286.408 538.198 287.084C543.919 286.427 557.821 286.78 564.285 286.792L611.753 286.86C611.721 283.285 611.62 280.507 612.112 276.956Z" fill="#FEFEFE"/>
<path d="M612.125 276.816C613.414 270.705 616.036 265.697 621.412 262.091C626.168 258.962 631.989 257.829 637.59 258.942C643.539 260.152 648.729 264.073 651.837 269.185C655.523 275.248 655.202 279.911 655.058 286.564C657.791 286.645 660.514 286.752 663.243 286.726C688.227 286.697 713.093 283.085 731.903 302.001C748.145 318.332 747.455 333.476 747.22 354.554C747.097 365.784 747.033 378.571 747.188 389.777C747.215 393.621 747.354 398.08 747.225 401.872C713.264 401.067 677.227 401.69 643.117 401.676L442.134 401.698L329.241 401.664L294.302 401.68C289.339 401.686 279.559 401.472 274.767 401.925C274.712 389.282 274.721 376.639 274.794 363.996L274.683 343.6C274.718 326.571 278.034 314.255 290.584 301.65C308.522 283.633 332.455 286.564 356.278 286.867C359.695 286.563 364.211 286.529 367.719 286.406C367.618 279.005 367.683 273.067 372.522 266.79C375.93 262.302 381.04 259.385 386.67 258.715C392.666 257.953 398.71 259.719 403.329 263.581C408.185 267.706 410.225 272.694 410.656 278.875C410.779 281.186 410.536 285.26 411.714 286.751L411.986 286.825L419.743 286.773C458.734 286.796 499.339 286.196 538.168 286.867C543.893 286.215 557.802 286.565 564.27 286.577L611.766 286.644C611.734 283.096 611.633 280.34 612.125 276.816Z" fill="#359EFA"/>
<path d="M274.745 365.57C275.695 369.841 275.324 385.368 275.284 390.22L747.207 390.282C747.234 393.966 747.373 398.24 747.244 401.875C713.278 401.103 677.236 401.7 643.121 401.687L442.109 401.708L329.2 401.676L294.256 401.69C289.292 401.697 279.51 401.492 274.718 401.925C274.663 389.807 274.672 377.688 274.745 365.57Z" fill="#0F2C45"/>
<path d="M612.434 277.165C613.691 270.938 616.246 265.834 621.485 262.159C626.12 258.97 631.792 257.816 637.251 258.95C643.048 260.183 648.105 264.179 651.134 269.389C654.727 275.568 654.414 280.32 654.273 287.1C654.268 295.137 654.002 305.006 654.341 312.892C654.325 322.448 655.331 332.046 649.013 339.784C645.337 344.258 640.066 346.991 634.404 347.354C628.742 347.701 623.185 345.66 618.998 341.697C616.058 338.91 613.946 335.308 612.925 331.319C610.949 323.427 612.721 287.562 612.434 277.165Z" fill="#0F2C45"/>
<path d="M367.82 286.927C367.717 279.383 367.783 273.33 372.751 266.932C376.25 262.358 381.496 259.385 387.276 258.702C393.432 257.925 399.637 259.724 404.379 263.661C409.365 267.867 411.459 272.95 411.901 279.251C411.599 289.325 412.873 324.313 410.852 331.455C409.703 335.481 407.43 339.11 404.291 341.931C391.249 353.68 370.4 345.069 368.414 329.418C366.745 316.274 368.19 300.349 367.82 286.927Z" fill="#0F2C45"/>
<path d="M612.099 276.702C612.389 287.05 610.597 322.747 612.594 330.602C613.627 334.573 615.761 338.157 618.732 340.931C622.963 344.876 628.579 346.908 634.301 346.562C640.022 346.201 645.349 343.48 649.063 339.027C655.449 331.326 654.432 321.773 654.448 312.261C654.105 304.412 654.374 294.589 654.379 286.59C657.071 286.672 659.753 286.781 662.44 286.754C662.424 291.94 662.366 297.126 662.266 302.311C662.277 305.873 662.435 309.39 661.797 312.886C664.026 317.845 665.949 322.323 666.413 327.839C667.055 335.813 664.474 343.71 659.268 349.694C653.457 356.468 644.511 360.879 635.718 361.454C626.472 362.072 617.368 358.927 610.397 352.707C604.512 347.364 599.844 338.321 599.096 330.047C598.617 324.758 602.41 317.68 602.984 313.046C604.054 304.356 603.385 296.446 609.085 288.529C609.839 287.483 609.465 288.723 609.744 287.458C605.814 286.647 596.251 287.268 591.705 287.101C575.488 286.507 555.889 288.018 539.967 286.949L539.267 286.897C544.904 286.236 558.602 286.591 564.972 286.603L611.746 286.672C611.714 283.073 611.614 280.277 612.099 276.702Z" fill="#359EFA"/>
<path d="M654.495 287.721C657.158 287.795 659.811 287.894 662.47 287.87C662.454 292.58 662.397 297.29 662.298 301.999C661.302 298.313 656.851 290.466 654.834 286.801C654.828 292.876 655.412 305.808 654.562 311.037C654.224 303.908 654.489 294.986 654.495 287.721Z" fill="#359EFA"/>
<path d="M409.916 278.722C410.04 281.07 409.796 285.212 410.98 286.728L411.253 286.803L419.048 286.75C419.044 291.004 419.146 295.768 418.975 299.979C419.02 302.604 418.421 311.986 418.919 313.477C423.388 326.846 424.173 336.603 414.749 348.561C409.078 355.684 400.819 360.265 391.783 361.3C382.325 362.379 372.829 359.633 365.402 353.67C358.481 348.138 354.174 339.97 353.513 331.127C352.866 323.257 357.569 317.488 357.986 309.416C358.284 303.658 361.34 291.317 364.981 287.064C361.38 287.129 358.863 287.1 355.277 286.846C358.71 286.537 363.248 286.502 366.773 286.376C367.135 299.762 365.721 315.644 367.353 328.752C369.297 344.36 389.704 352.948 402.468 341.231C405.541 338.417 407.766 334.798 408.89 330.783C410.867 323.661 409.621 288.768 409.916 278.722Z" fill="#359EFA"/>
<path d="M412.023 286.849L420.075 286.801C420.071 290.698 420.176 295.062 420 298.919C417.481 295.93 414.364 290.399 412.023 286.849Z" fill="#359EFA"/>
<path d="M274.994 686.706C277.971 708.635 299.11 728.906 321.342 730.814C331.558 731.688 343.611 731.269 353.971 731.206L400.958 731.174L561.644 731.163L656.295 731.206C663.429 731.206 670.739 731.137 677.82 731.206C695.719 731.375 711.335 732.228 726.325 720.742C738.25 711.602 743.967 702.044 747.015 687.427C747.095 689.35 747.138 691.278 747.138 693.207C747.336 715.608 749.267 732.774 731.967 750.062C713.287 768.733 691.435 765.226 667.386 765.194L598.121 765.152L352.3 765.284C328.299 765.353 308.435 768.119 289.919 749.829C271.517 731.651 274.879 710.416 274.994 686.706Z" fill="#FEFEFE"/>
<path d="M447.971 456.542C477.834 455.647 501.154 472.275 510.997 500.075C532.743 439.547 616.301 443.427 633.502 502.952C647.643 551.871 603.446 593.288 570.744 622.148C553.424 636.933 530.129 655.769 511.363 668.529C506.99 666.434 495.03 657.441 490.851 654.086C480.241 645.494 469.017 637.639 458.719 628.64C424.857 599.022 377.591 558.984 386.977 508.691C392.673 478.173 417.476 458.626 447.971 456.542Z" fill="#FF8585"/>
</svg>
