<svg width="118" height="109" viewBox="0 0 118 109" fill="none" xmlns="http://www.w3.org/2000/svg">
<g clip-path="url(#clip0_2785_24919)">
<mask id="mask0_2785_24919" style="mask-type:luminance" maskUnits="userSpaceOnUse" x="0" y="0" width="118" height="109">
<path d="M118 0H0V109H118V0Z" fill="white"/>
</mask>
<g mask="url(#mask0_2785_24919)">
<path d="M44.4991 22.791C45.6265 20.4008 47.472 18.6809 49.9557 17.7545C52.4049 16.8614 55.1082 16.9668 57.4801 18.0477C59.4939 18.9706 61.3686 20.7921 62.1396 22.8754C68.1098 20.1185 75.3633 24.3363 75.1339 31.0537C75.1127 31.6816 75.0763 32.5158 74.8758 33.1102C73.893 35.5854 72.8236 37.1803 70.2774 38.3334C68.549 39.1159 66.2247 39.2926 64.4409 38.5666C64.1592 38.4538 63.8935 38.3059 63.6487 38.1268C62.3119 40.0119 59.7444 40.3683 57.8812 39.0477C57.4408 38.734 57.0557 38.3496 56.7411 37.9105C55.8293 39.2541 54.1133 40.2356 52.531 40.5077C50.1393 40.919 47.9007 40.3014 46.1066 38.7036C46.1411 39.4581 46.1571 40.2135 46.1549 40.9689C46.1654 42.6744 46.1868 43.9216 44.9549 45.2816C43.0039 47.4357 39.4211 47.3638 37.319 45.4818C36.5139 44.7611 35.8337 43.241 35.7674 42.1667C35.7557 41.6478 35.8261 40.7419 35.8599 40.2009C33.6836 40.8473 32.2852 40.6272 30.3498 39.483C30.1904 39.346 30.0206 39.2361 29.8733 39.105C28.651 38.0152 27.9287 36.4738 27.8744 34.8392C27.8261 33.2254 28.4181 31.6578 29.5214 30.4766C30.7119 29.2069 32.2133 28.6322 33.9288 28.5695C34.0373 27.9034 34.2293 27.2537 34.5003 26.6355C36.1651 22.7788 40.6777 21.1308 44.4991 22.791Z" fill="#F2F7FC"/>
<path d="M46.8322 43.0704C52.4041 43.6479 66.4338 42.9633 71.1521 39.8135C71.0184 42.4395 71.1048 45.737 71.1055 48.4038L71.1014 63.3496L71.0864 68.9105C71.0707 71.2981 71.174 73.1528 69.2967 74.9877C68.6527 75.6172 67.7872 76.2537 66.931 76.5944C62.5205 78.3491 57.5026 78.5215 52.8052 78.6372C47.4736 78.398 40.2232 78.551 35.9388 74.9882C34.1217 73.4769 34.3409 70.6754 34.347 68.6002L34.3482 62.9476L34.3351 42.0144C34.731 42.0201 35.1787 41.9826 35.5787 41.9581C35.2951 43.5591 35.7252 44.6064 36.2657 46.0388C36.8869 46.964 37.3727 47.5401 38.3716 48.0514C41.172 49.4843 44.0642 48.557 45.942 46.2077C46.5638 45.188 46.8184 44.2632 46.8322 43.0704Z" fill="#FDDD87"/>
<path d="M46.8322 43.0704C52.4041 43.6479 66.4338 42.9633 71.1521 39.8135C71.0184 42.4395 71.1048 45.737 71.1055 48.4038L71.1014 63.3496L71.0864 68.9105C71.0707 71.2981 71.174 73.1528 69.2967 74.9877C68.6527 75.6172 67.7872 76.2537 66.931 76.5944C62.5205 78.3491 57.5026 78.5215 52.8052 78.6372C47.4736 78.398 40.2232 78.551 35.9388 74.9882C34.1217 73.4769 34.3409 70.6754 34.347 68.6002L34.3482 62.9476L34.3351 42.0144C34.731 42.0201 35.1787 41.9826 35.5787 41.9581C35.2951 43.5591 35.7252 44.6064 36.2657 46.0388C36.1163 46.4432 36.2286 57.3489 36.2212 58.7923C36.207 61.2817 36.2065 63.7709 36.2198 66.2603C36.2236 67.3864 36.1991 68.5109 36.2262 69.6481C36.2438 71.7723 38.2077 73.6177 40.1364 74.2C44.9185 75.6436 51.059 75.9421 56.051 75.6096C60.052 75.343 68.2965 75.0768 69.0029 70.0782C69.079 69.5382 69.0393 68.1803 69.0405 67.5624L69.0374 62.5482L69.06 50.8674C69.0564 48.7785 68.9741 46.3668 69.0374 44.3221C67.0233 45.0272 65.0361 45.3843 62.9311 45.6995C58.3679 46.386 53.7476 46.6147 49.1387 46.3815C48.4535 46.353 46.4796 46.3062 45.942 46.2077C46.5638 45.188 46.8184 44.2632 46.8322 43.0704Z" fill="#F2F7FC"/>
<path d="M49.6692 48.6456C50.6674 48.5938 54.6233 48.5285 55.3529 48.7596C55.5594 48.8249 55.7124 48.9681 55.7969 49.1678C55.8835 49.373 55.8816 49.6648 55.8851 49.8871C55.9042 51.0137 55.8713 52.1428 55.8735 53.2699L55.8766 62.7586L55.8749 68.8455C55.8785 70.0787 56.0098 71.7999 55.7352 73.0331C55.6862 73.2539 55.5007 73.3544 55.2989 73.4356C54.5771 73.5068 50.3356 73.5061 49.7765 73.3492C49.5362 73.282 49.3304 73.0003 49.221 72.7904C49.0735 72.5076 49.0361 72.2024 49.0271 71.888C49.0019 71.0141 49.0373 70.1305 49.038 69.2554L49.0514 62.9714C49.0526 61.518 48.9122 49.6738 49.1249 49.1068C49.2167 48.8624 49.452 48.7579 49.6692 48.6456Z" fill="#F2BE46"/>
<path d="M63.2354 49.0493C64.1101 48.9818 64.8205 49.1295 65.5771 49.5677C67.4888 50.6738 67.1789 52.84 67.1798 54.7116L67.1805 59.6726L67.181 65.2926C67.1805 68.2402 67.7049 71.0008 64.148 71.8386C63.2832 71.9632 62.5019 71.8039 61.7708 71.3332C59.7334 70.0207 60.1419 67.5676 60.1431 65.4871L60.1488 59.6387L60.1443 54.8199C60.1443 53.9319 60.1143 53.0288 60.1869 52.1452C60.3258 50.4527 61.6355 49.3518 63.2354 49.0493Z" fill="#F2BE46"/>
<path d="M40.5699 49.0486C41.3461 48.9904 42.2278 49.1887 42.9194 49.5419C45.1436 50.6765 44.7436 53.0527 44.7472 55.145L44.7536 61.2203L44.7615 65.9695C44.7622 66.8059 44.777 67.6413 44.7427 68.4772C44.6763 70.1046 43.6062 71.3718 42.0423 71.7885C41.2481 71.9645 40.4179 71.8662 39.687 71.5098C38.7782 71.0555 37.897 69.8149 37.8525 68.7883C37.813 67.8788 37.8537 66.8653 37.8566 65.9481L37.8716 60.2229L37.8561 55.0902C37.8525 54.1586 37.8449 53.2331 37.8675 52.3011C37.908 50.6471 39.0394 49.5181 40.5699 49.0486Z" fill="#F2BE46"/>
<path d="M49.9556 17.7546C52.4049 16.8615 55.1081 16.9667 57.4803 18.0477C59.4939 18.9706 61.3686 20.792 62.1396 22.8753C68.1098 20.1184 75.3635 24.3363 75.1341 31.0537C75.1127 31.6816 75.0763 32.5158 74.876 33.11C75.1731 33.5369 75.0318 36.6991 75.0147 37.4106C76.2056 37.4028 77.9055 37.3498 79.0498 37.4491C81.5387 37.6652 84.5068 38.8504 86.2732 40.6405C88.9627 43.279 89.9048 46.4348 89.8615 50.1023C89.7935 55.9475 90.629 61.9582 86.0272 66.5233C82.8272 69.6986 79.355 70.3694 75.0566 70.4136C75.0164 74.2638 75.4827 77.6575 72.4296 80.6325C67.8224 85.1201 56.1268 85.1205 49.9828 85.0194C45.3013 84.9424 38.458 84.2647 34.4391 81.765C33.7956 81.3649 33.2287 80.8786 32.7024 80.3348C31.5089 79.089 30.7178 77.5136 30.4319 75.8137C30.2456 74.6931 30.3246 72.3552 30.3296 71.1047L30.3198 64.126L30.3284 48.3806C30.3262 45.5531 30.3274 42.7198 30.3174 39.8917C30.317 39.7582 30.3208 39.612 30.35 39.4828C30.1904 39.346 30.0205 39.236 29.8735 39.105C28.6509 38.0152 27.9284 36.4738 27.8742 34.8392C27.8261 33.2254 28.418 31.6578 29.5212 30.4769C30.7119 29.2071 32.2133 28.6319 33.929 28.5692C34.0373 27.9034 34.229 27.2536 34.5003 26.6355C36.1651 22.7788 40.6777 21.1308 44.4989 22.7909C45.6265 20.4008 47.4719 18.6809 49.9556 17.7546ZM81.5011 45.4472C79.5617 43.6614 77.4582 43.9777 75.0423 43.9865L75.0382 63.8812C77.3638 63.8587 79.3326 63.5345 81.0905 61.8185C83.3335 59.3977 83.3099 56.3464 83.2378 53.2503C83.1738 50.4972 83.7812 47.5464 81.5011 45.4472Z" fill="#72B3FC"/>
<path d="M44.462 22.791C45.5896 20.4008 47.4351 18.6809 49.9185 17.7545C52.368 16.8614 55.071 16.9668 57.4432 18.0477C59.4568 18.9706 61.3317 20.7921 62.1027 22.8754C68.0729 20.1185 75.3264 24.3363 75.097 31.0537C75.0758 31.6816 75.0394 32.5158 74.8389 33.1102C73.8559 35.5854 72.7865 37.1803 70.2405 38.3334C68.5119 39.1159 66.1878 39.2926 64.404 38.5666C64.1221 38.4538 63.8566 38.3059 63.6115 38.1268C62.275 40.0119 59.7075 40.3683 57.844 39.0477C57.4037 38.734 57.0188 38.3496 56.7043 37.9105C55.7921 39.2541 54.0761 40.2356 52.4941 40.5077C50.1022 40.919 47.8638 40.3014 46.0697 38.7036C46.104 39.4581 46.1202 40.2135 46.118 40.9689C46.1285 42.6744 46.1499 43.9216 44.918 45.2816C42.967 47.4357 39.3842 47.3638 37.2821 45.4818C36.4768 44.7611 35.7968 43.241 35.7305 42.1667C35.7188 41.6478 35.789 40.7419 35.823 40.2009C33.6467 40.8473 32.2483 40.6272 30.3129 39.483C30.1533 39.346 29.9834 39.2361 29.8364 39.105C28.6138 38.0152 27.8916 36.4738 27.8373 34.8392C27.7893 33.2254 28.3812 31.6578 29.4843 30.4766C30.675 29.2069 32.1764 28.6322 33.8919 28.5695C34.0002 27.9034 34.1922 27.2537 34.4634 26.6355C36.1282 22.7788 40.6408 21.1308 44.462 22.791Z" fill="#F2F7FC"/>
<path d="M46.7953 43.0704C52.367 43.6479 66.3969 42.9633 71.115 39.8135C70.9815 42.4395 71.0679 45.737 71.0684 48.4038L71.0643 63.3496L71.0493 68.9105C71.0339 71.2981 71.1369 73.1528 69.2598 74.9877C68.6156 75.6172 67.7503 76.2537 66.8941 76.5944C62.4834 78.3491 57.4655 78.5215 52.7684 78.6372C47.4367 78.398 40.1861 78.551 35.902 74.9882C34.0849 73.4769 34.304 70.6754 34.3102 68.6002L34.3114 62.9476L34.2983 42.0144C34.6941 42.0201 35.1419 41.9826 35.5418 41.9581C35.2582 43.5591 35.6883 44.6064 36.2289 46.0388C36.8498 46.964 37.3356 47.5401 38.3348 48.0514C41.1349 49.4843 44.0271 48.557 45.9049 46.2077C46.527 45.188 46.7815 44.2632 46.7953 43.0704Z" fill="#FDDD87"/>
<path d="M46.7953 43.0704C52.367 43.6479 66.3969 42.9633 71.115 39.8135C70.9815 42.4395 71.0679 45.737 71.0684 48.4038L71.0643 63.3496L71.0493 68.9105C71.0339 71.2981 71.1369 73.1528 69.2598 74.9877C68.6156 75.6172 67.7503 76.2537 66.8941 76.5944C62.4834 78.3491 57.4655 78.5215 52.7684 78.6372C47.4367 78.398 40.1861 78.551 35.902 74.9882C34.0849 73.4769 34.304 70.6754 34.3102 68.6002L34.3114 62.9476L34.2983 42.0144C34.6941 42.0201 35.1419 41.9826 35.5418 41.9581C35.2582 43.5591 35.6883 44.6064 36.2289 46.0388C36.0792 46.4432 36.1917 57.3489 36.1844 58.7923C36.1701 61.2817 36.1694 63.7709 36.1827 66.2603C36.1868 67.3864 36.1622 68.5109 36.1894 69.6481C36.207 71.7723 38.1709 73.6177 40.0993 74.2C44.8816 75.6436 51.0222 75.9421 56.0141 75.6096C60.0151 75.343 68.2597 75.0768 68.966 70.0782C69.0421 69.5382 69.0022 68.1803 69.0034 67.5624L69.0005 62.5482L69.0231 50.8674C69.0195 48.7785 68.9372 46.3668 69.0005 44.3221C66.9862 45.0272 64.999 45.3843 62.8942 45.6995C58.331 46.386 53.7105 46.6147 49.1018 46.3815C48.4164 46.353 46.4428 46.3062 45.9049 46.2077C46.527 45.188 46.7815 44.2632 46.7953 43.0704Z" fill="#F2F7FC"/>
<path d="M49.6323 48.6456C50.6303 48.5938 54.5864 48.5285 55.3161 48.7596C55.5226 48.8249 55.6755 48.9681 55.7597 49.1678C55.8466 49.373 55.8444 49.6648 55.8482 49.8871C55.867 51.0137 55.8344 52.1428 55.8366 53.2699L55.8397 62.7586L55.838 68.8455C55.8416 70.0787 55.9729 71.7999 55.6984 73.0331C55.6491 73.2539 55.4638 73.3544 55.2618 73.4356C54.54 73.5068 50.2987 73.5061 49.7394 73.3492C49.4993 73.282 49.2933 73.0003 49.1839 72.7904C49.0366 72.5076 48.9992 72.2024 48.9902 71.888C48.965 71.0141 49.0002 70.1305 49.0011 69.2554L49.0145 62.9714C49.0157 61.518 48.8751 49.6738 49.088 49.1068C49.1798 48.8624 49.4151 48.7579 49.6323 48.6456Z" fill="#F2BE46"/>
<path d="M63.1985 49.0493C64.073 48.9818 64.7837 49.1295 65.5399 49.5677C67.4517 50.6738 67.1418 52.84 67.1429 54.7116L67.1437 59.6726L67.1441 65.2926C67.1437 68.2402 67.6678 71.0008 64.1111 71.8386C63.2463 71.9632 62.4651 71.8039 61.734 71.3332C59.6966 70.0207 60.1051 67.5676 60.1062 65.4871L60.112 59.6387L60.1074 54.8199C60.1074 53.9319 60.0775 53.0288 60.15 52.1452C60.2887 50.4527 61.5984 49.3518 63.1985 49.0493Z" fill="#F2BE46"/>
<path d="M40.533 49.0486C41.3093 48.9904 42.1907 49.1887 42.8825 49.5419C45.1065 50.6765 44.7068 53.0527 44.7101 55.145L44.7168 61.2203L44.7244 65.9695C44.7253 66.8059 44.7398 67.6413 44.7058 68.4772C44.6395 70.1046 43.5694 71.3718 42.0054 71.7885C41.2113 71.9645 40.3807 71.8662 39.6501 71.5098C38.7414 71.0555 37.8602 69.8149 37.8157 68.7883C37.7762 67.8788 37.8169 66.8653 37.8197 65.9481L37.8347 60.2229L37.819 55.0902C37.8157 54.1586 37.8081 53.2331 37.8307 52.3011C37.8711 50.6471 39.0023 49.5181 40.533 49.0486Z" fill="#F2BE46"/>
</g>
</g>
<defs>
<clipPath id="clip0_2785_24919">
<rect width="118" height="109" fill="white"/>
</clipPath>
</defs>
</svg>
