<svg width="1024" height="1024" viewBox="0 0 1024 1024" fill="none" xmlns="http://www.w3.org/2000/svg">
<g clip-path="url(#clip0_2746_24836)">
<path d="M378.041 732.155C372.688 730.42 360.622 728.705 354.715 727.565C305.671 718.065 249.595 695.62 240.061 640.095C237.7 626.345 236.939 608.855 239.469 594.66C252.047 524.08 290.863 459.021 329.199 399.498C367.142 345.153 426.396 267.687 494.142 252.718C563.64 237.361 637.415 320.521 673.945 370.427C719.56 432.739 766 510.57 782.96 586.705C788.86 613.18 785.89 652.045 769.69 674.35C741.275 713.535 690.535 724.335 645.855 731.855C635.8 735.605 620.26 738.06 609.335 739.505C547.755 747.67 482.228 748.065 420.498 740.48C409.612 739.14 388.151 735.625 378.041 732.155Z" fill="#FEFEFE"/>
<path d="M380.359 644.5C381.002 632.13 382.496 618.89 383.823 606.46C386.948 577.165 390.378 547.68 395.32 518.64C396.575 511.265 403.518 505.095 411.05 504.625C422.696 504.35 434.575 504.82 446.25 504.94L514.84 505.175L581.35 504.885C592.205 504.815 603.175 504.6 613.99 504.875C619.59 505.02 627.01 511.89 628.235 517.16C629.45 522.385 630.18 528.415 630.955 533.75C632.625 545.145 634.12 556.57 635.43 568.01C638.13 590.815 642.595 623.19 643.515 645.67L643.95 650.95C644.905 670.675 645.9 689.985 645.565 709.755C645.5 713.49 645.14 729.65 645.855 731.855C635.8 735.605 620.26 738.06 609.335 739.505C547.755 747.67 482.228 748.065 420.498 740.48C409.612 739.14 388.151 735.625 378.041 732.155C378.153 704.005 377.893 679.555 379.885 651.095C380.021 648.895 380.18 646.695 380.359 644.5Z" fill="#0F2C45"/>
<path d="M379.885 651.095C390.64 652.025 402.439 654.11 413.249 655.545C429.415 657.7 445.652 659.28 461.929 660.29C500.92 662.595 540.335 661.995 579.315 659.01C600.955 657.355 622.83 652.965 643.95 650.95C644.905 670.675 645.9 689.985 645.565 709.755C645.5 713.49 645.14 729.65 645.855 731.855C635.8 735.605 620.26 738.06 609.335 739.505C547.755 747.67 482.228 748.065 420.498 740.48C409.612 739.14 388.151 735.625 378.041 732.155C378.153 704.005 377.893 679.555 379.885 651.095Z" fill="#0F2C45"/>
<path d="M378.041 732.155C372.688 730.42 360.622 728.705 354.715 727.565C305.671 718.065 249.595 695.62 240.061 640.095C237.7 626.345 236.939 608.855 239.469 594.66C252.047 524.08 290.863 459.021 329.199 399.498C367.142 345.153 426.396 267.687 494.142 252.718C563.64 237.361 637.415 320.521 673.945 370.427C719.56 432.739 766 510.57 782.96 586.705C788.86 613.18 785.89 652.045 769.69 674.35C741.275 713.535 690.535 724.335 645.855 731.855C645.14 729.65 645.5 713.49 645.565 709.755C645.9 689.985 644.905 670.675 643.95 650.95L643.515 645.67C658.055 642.47 672.545 640.03 686.945 636.035C709.365 629.81 743.37 618.92 755.3 597.475C761.22 586.83 758.875 575.52 755.72 564.43C745.99 530.245 729.1 496.935 711.91 465.921C677.79 404.353 618.48 314.78 556.12 280.292C535.61 268.951 514.505 263.34 491.497 270.05C420.745 290.683 347.747 400.902 313.38 463.017C297.921 490.957 283.91 519.35 273.055 549.42C269.935 558.065 266.414 567.125 265.109 576.255C264.363 581.48 264.487 586.785 266.043 591.855C269.936 604.54 282.791 613.88 293.95 619.82C316.049 631.585 341.035 637.52 365.351 642.755C368.26 643.385 377.527 645.745 379.96 644.74C380.103 644.68 380.226 644.58 380.359 644.5C380.18 646.695 380.021 648.895 379.885 651.095C377.893 679.555 378.153 704.005 378.041 732.155Z" fill="#FEFEFE"/>
<path d="M633.97 432.101C645.31 430.635 657.075 439.406 663.775 447.898C668.25 453.572 668.485 458.855 662.11 462.943C648.72 466.617 618.06 443.07 633.97 432.101Z" fill="#359EFA"/>
<path d="M454.577 325.589C456.728 325.488 459.501 325.213 461.52 325.902C465.39 327.221 468.06 332.326 465.907 336.086C460.528 345.479 450.112 351.23 440.223 354.701C429.8 356.715 424.242 350.809 430.229 341.251C435.083 333.504 445.665 327.576 454.577 325.589Z" fill="#359EFA"/>
<path d="M415.552 382.059C423.472 381.659 431.178 384.144 425.936 393.377C421.31 401.527 412.511 407.015 403.865 409.855C393.67 411.992 388.847 405.536 394.263 396.654C398.305 390.024 408.056 383.956 415.552 382.059Z" fill="#359EFA"/>
<path d="M667.905 507.03C670.055 506.91 671.66 506.895 673.82 507.32C683.18 509.165 705.255 525.975 688.77 533.855C674.02 534.845 650.88 516.09 667.905 507.03Z" fill="#359EFA"/>
</g>
<defs>
<clipPath id="clip0_2746_24836">
<rect width="1024" height="1024" fill="white"/>
</clipPath>
</defs>
</svg>
