<svg width="1024" height="1024" viewBox="0 0 1024 1024" fill="none" xmlns="http://www.w3.org/2000/svg">
<path d="M459.808 316.122C495.611 289.397 531.918 289.361 567.953 315.61C604.604 304.935 636.293 316.937 660.962 344.978C680.058 342.834 699.219 348.448 714.099 360.548C721.029 366.182 726.931 372.96 731.549 380.586C753.957 383.03 770.432 390.278 782.862 410.069C785.188 415.541 787.624 421.257 789.181 426.986C790.17 433.71 791.07 442.124 786.754 447.939C785.969 449.014 785.084 450.012 784.109 450.917C762.746 464.592 734.433 469.605 709.704 473.618C658.611 481.91 606.96 484.888 555.275 486.266C480.413 488.262 404.533 486.626 330.332 475.856C302.911 471.876 263.863 466.24 240.99 449.848C235.042 442.992 235.194 433.269 237.416 424.889C237.802 421.311 241.197 413.857 242.731 410.239C253.736 394.659 266.627 384.802 286.006 381.496C289.218 380.977 292.448 380.573 295.69 380.285C312.076 354.175 335.147 342.435 365.994 345.129C383.041 326.417 401.808 313.197 428.237 311.842C438.94 311.227 449.661 312.681 459.808 316.122Z" fill="#FEFEFE"/>
<path d="M508.975 316.403C531.846 314.099 547.012 321.695 562.004 338.426C568.753 334.909 573.992 333.556 581.538 332.521C609.908 328.632 636.5 339.322 650.122 365.316C675.434 358.381 709.806 371.726 719 397.495C711.967 404.967 702.379 407.204 692.812 403.66C674.199 437.851 622.813 436.329 608.115 400.505C597.073 418.316 570.979 426.148 551.739 418.779C546.977 416.956 543.282 414.785 539.008 412.048C538.381 413.587 537.305 415.874 536.388 417.285C519.922 442.623 487.733 446.467 463.073 431.361C459.412 429.014 457.26 426.602 454.301 423.486C438.77 450.956 407.186 460.571 379.432 443.542C375.086 440.875 371.611 437.157 368.427 433.202C363.83 440.464 357.518 446.483 350.048 450.73C327.537 463.523 298.397 456.241 285.462 433.432C279.377 434.361 267.279 434.934 262.712 430.141C261.56 428.934 260.944 427.312 261.004 425.644C261.19 418.959 269.884 411.19 275.155 407.718C285.828 400.686 296.254 397.834 308.876 397.909C319.145 371.744 350.613 358.572 377.092 365.282C395.105 331.963 434.529 323.117 467.308 340.045C468.098 338.818 468.943 337.627 469.842 336.476C478.997 324.612 494.459 318.278 508.975 316.403Z" fill="#FEFEFE"/>
<path d="M233.154 441.308C233.154 561.545 292.325 588.805 379.453 642.383V692.691H634.258V648.924C727.527 597.674 791.846 566.673 791.846 441.308H233.154Z" fill="#359EFA"/>
<path d="M571.469 351.873C582.809 350.407 594.574 359.178 601.274 367.671C605.749 373.344 605.984 378.628 599.609 382.716C586.219 386.389 555.559 362.842 571.469 351.873Z" fill="#4A87EC"/>
<path d="M443.537 354.752C451.457 354.353 459.163 356.837 453.921 366.07C449.295 374.22 440.496 379.708 431.85 382.548C421.655 384.685 416.832 378.23 422.248 369.347C426.29 362.718 436.041 356.65 443.537 354.752Z" fill="#4A87EC"/>
<path d="M522.64 329.671C529.327 333.934 534.167 340.423 524.546 344.912C516.053 348.874 505.701 348.248 497.009 345.554C487.462 341.389 487.271 333.333 496.832 329.231C503.968 326.17 515.431 326.874 522.64 329.671Z" fill="#4A87EC"/>
</svg>
