<svg width="1024" height="1024" viewBox="0 0 1024 1024" fill="none" xmlns="http://www.w3.org/2000/svg">
<g clip-path="url(#clip0_2836_25066)">
<path fill-rule="evenodd" clip-rule="evenodd" d="M498.934 239.42C549.088 236.077 597.908 252.888 635.983 285.178C674.473 317.445 698.458 363.762 702.603 413.814C708.638 486.11 670.698 559.971 634.158 620.086C601.703 673.48 561.613 732.565 521.343 780.315C519.143 782.415 516.308 783.925 513.263 784.305C509.388 784.79 505.753 783.245 502.798 780.825C497.039 776.105 492.327 768.49 487.747 762.61C478.438 750.665 469.137 738.815 460.234 726.546C407.476 653.856 329.101 539.365 320.889 449.649C316.181 398.208 330.161 348.953 363.438 309.063C397.722 267.967 444.662 244.434 497.605 239.57C498.048 239.519 498.491 239.47 498.934 239.42ZM584.239 404.763C579.709 364.618 543.483 335.752 503.343 340.299C463.223 344.844 434.38 381.042 438.907 421.162C443.434 461.281 479.618 490.141 519.739 485.632C559.889 481.12 588.769 444.908 584.239 404.763Z" fill="#359EFA"/>
</g>
<defs>
<clipPath id="clip0_2836_25066">
<rect width="1024" height="1024" fill="white"/>
</clipPath>
</defs>
</svg>
