<svg width="1024" height="1024" viewBox="0 0 1024 1024" fill="none" xmlns="http://www.w3.org/2000/svg">
<g clip-path="url(#clip0_2836_25076)">
<g clip-path="url(#clip1_2836_25076)">
<path d="M417.861 834.49C398.879 836.738 381.575 830.858 368.606 818.693C355.271 806.175 349.467 789.424 350.398 770.399L356.685 642.465L367.466 477.318C331.062 462.801 310.522 434.983 295.562 400.5C272.533 340.917 279.489 253.411 330.407 209.52C349.467 193.083 373.846 186.798 398.958 188.183C427.306 189.751 452.195 203.196 470.522 224.965C508.34 269.888 516.528 333.626 503.232 389.786C493.25 428.475 473.561 461.403 436.069 477.71L467.614 771.445C471.059 803.51 450.78 830.583 417.874 834.477L417.861 834.49Z" fill="#359EFA"/>
<path d="M741.686 363.326C743.035 385.239 740.062 404.773 733.328 424.399C725.167 448.219 708.413 467.296 684.296 477.07L719.875 775.365C723.857 808.789 697.671 835.183 664.804 835C636.26 834.843 608.475 815.374 605.541 785.87C602.895 759.162 604.978 733.447 606.405 706.295L618.47 476.939C574.206 462.37 554.439 416.637 551.164 373.244C549.854 348.953 550.116 325.76 551.203 301.391L555.094 213.859C555.566 203.288 560.137 193.828 570.198 189.764C575.53 187.608 581.49 187.399 586.651 190.77C590.109 193.031 594.956 197.813 595.074 203.758L597.786 337.925C597.917 344.641 604.257 348.274 609.314 348.496C613.82 348.692 622.479 346.745 622.531 340.447L623.802 206.737C623.88 198.113 630.365 191.319 636.849 189.15C644.997 186.432 652.883 189.398 658.162 195.709C662.446 200.831 663.206 205.993 663.284 212.63L664.568 339.192C664.634 345.412 671.55 348.339 676.083 348.626C680.117 348.875 688.75 347.006 688.855 341.035L691.239 206.267C691.37 199.067 696.204 193.606 700.54 190.966C707.417 186.759 715.015 188.065 720.923 191.881C729.241 197.264 731.953 205.3 732.529 214.747L741.673 363.313L741.686 363.326Z" fill="#359EFA"/>
</g>
</g>
<defs>
<clipPath id="clip0_2836_25076">
<rect width="1024" height="1024" fill="white"/>
</clipPath>
<clipPath id="clip1_2836_25076">
<rect width="459" height="647" fill="white" transform="translate(283 188)"/>
</clipPath>
</defs>
</svg>
